<svg xmlns="http://www.w3.org/2000/svg" xmlns:xlink="http://www.w3.org/1999/xlink" width="24" height="24" viewBox="0 0 24 24"><defs><style>.a{fill:#b5b5b5;}.b{clip-path:url(#a);}</style><clipPath id="a"><path class="a" d="M6,9a1.719,1.719,0,0,1-1.326-.642L.462,3.26A2.085,2.085,0,0,1,.2,1.049,1.76,1.76,0,0,1,1.788,0h8.426A1.76,1.76,0,0,1,11.8,1.049a2.085,2.085,0,0,1-.258,2.21l-4.214,5.1A1.719,1.719,0,0,1,6,9" transform="translate(5.999 8)"/></clipPath></defs><path class="a" d="M6,9a1.719,1.719,0,0,1-1.326-.642L.462,3.26A2.085,2.085,0,0,1,.2,1.049,1.76,1.76,0,0,1,1.788,0h8.426A1.76,1.76,0,0,1,11.8,1.049a2.085,2.085,0,0,1-.258,2.21l-4.214,5.1A1.719,1.719,0,0,1,6,9" transform="translate(5.999 8)"/></svg>